<svg width="1440" height="800" viewBox="0 0 1440 800" fill="none" xmlns="http://www.w3.org/2000/svg">
<g clip-path="url(#clip0_2007_93)">
<path d="M808.5 410.002C813.719 410.002 817.95 405.524 817.95 400C817.95 394.476 813.719 389.998 808.5 389.998C803.281 389.998 799.05 394.476 799.05 400C799.05 405.524 803.281 410.002 808.5 410.002Z" fill="#D2734D" fill-opacity="0.02"/>
<path d="M785.697 420.251C796.264 433.581 815.04 435.319 827.634 424.135C840.228 412.95 841.87 393.078 831.303 379.749C820.736 366.419 801.96 364.681 789.366 375.865C776.772 387.05 775.129 406.922 785.697 420.251Z" stroke="#D2734D" stroke-opacity="0.02" stroke-width="0.5" stroke-dasharray="10 10 10 100"/>
<path d="M749.87 389.058C744.161 423.33 765.782 456.011 798.162 462.054C830.543 468.097 861.421 445.213 867.13 410.942C872.84 376.67 851.219 343.989 818.838 337.946C786.458 331.903 755.58 354.787 749.87 389.058Z" stroke="#D2734D" stroke-opacity="0.02" stroke-dasharray="20 20 20 200"/>
<path d="M763.85 318.146C721.137 344.246 706.503 402.052 731.163 447.258C755.823 492.465 810.439 507.954 853.151 481.854C895.864 455.754 910.498 397.948 885.838 352.742C861.178 307.535 806.562 292.046 763.85 318.146Z" stroke="#D2734D" stroke-opacity="0.02" stroke-width="1.5" stroke-dasharray="30 30 30 300"/>
<path d="M849.224 281.578C787.43 257.773 719.103 291.495 696.612 356.898C674.12 422.301 705.982 494.617 767.776 518.422C829.57 542.227 897.897 508.505 920.388 443.102C942.879 377.699 911.018 305.382 849.224 281.578Z" stroke="#D2734D" stroke-opacity="0.02" stroke-width="2" stroke-dasharray="100 100 100 100 100 400"/>
<path d="M950.531 343.761C923.615 263.312 838.207 223.274 759.766 254.334C681.324 285.394 639.554 375.79 666.469 456.239C693.384 536.688 778.793 576.726 857.234 545.666C935.676 514.606 977.446 424.21 950.531 343.761Z" stroke="#FFDF97" stroke-width="2.5" stroke-dasharray="125 125 125 125 125 500"/>
<path d="M866.981 574.799C961.111 537.528 1011.24 429.052 978.937 332.513C946.638 235.974 844.148 187.928 750.018 225.2C655.889 262.472 605.765 370.948 638.063 467.487C670.361 564.026 772.851 612.071 866.981 574.799Z" stroke="#D2734D" stroke-opacity="0.02" stroke-width="3" stroke-dasharray="150 150 150 150 150 600"/>
<path d="M965.385 538.72C1040.87 443.736 1031.82 304.63 945.174 228.018C858.529 151.405 727.098 166.297 651.615 261.28C576.132 356.264 585.181 495.37 671.826 571.982C758.471 648.595 889.902 633.703 965.385 538.72Z" stroke="#D2734D" stroke-opacity="0.02" stroke-width="3.5" stroke-dasharray="175 175 175 175 175 700"/>
<path d="M763.388 652.491C890.833 674.301 1014.34 578.938 1039.26 439.491C1064.17 300.044 981.058 169.319 853.613 147.509C726.168 125.698 602.655 221.062 577.74 360.509C552.825 499.956 635.943 630.681 763.388 652.491Z" stroke="#D2734D" stroke-opacity="0.02" stroke-width="4" stroke-dasharray="800 400 800 400 800 800 400 800"/>
<path d="M1068.1 444.427C1096.13 287.55 1002.63 140.484 859.251 115.947C715.876 91.4108 576.925 198.695 548.895 355.572C520.866 512.45 614.372 659.516 757.748 684.052C901.124 708.589 1040.08 601.305 1068.1 444.427Z" stroke="#D2734D" stroke-opacity="0.02" stroke-width="4.5" stroke-dasharray="900 450 900 450 900 900 450 900"/>
<path d="M808.5 715.055C972.9 715.055 1106.17 574 1106.17 400C1106.17 226 972.9 84.9446 808.5 84.9446C644.1 84.9446 510.828 226 510.828 400C510.828 574 644.1 715.055 808.5 715.055Z" stroke="#D2734D" stroke-opacity="0.02" stroke-width="5" stroke-dasharray="250 250 250 250 250 1000"/>
<path d="M451.293 400C451.293 608.8 611.22 778.066 808.5 778.066C1005.78 778.066 1165.71 608.8 1165.71 400C1165.71 191.2 1005.78 21.9336 808.5 21.9336C611.22 21.9336 451.293 191.2 451.293 400Z" stroke="#D2734D" stroke-opacity="0.02" stroke-width="6" stroke-dasharray="300 300 300 300 300 1200"/>
<path d="M447.592 620.539C562.672 831.503 817.547 903.785 1016.87 781.984C1216.2 660.184 1284.49 390.425 1169.41 179.461C1054.33 -31.5029 799.454 -103.785 600.13 18.0157C400.805 139.816 332.512 409.575 447.592 620.539Z" stroke="#D2734D" stroke-opacity="0.02" stroke-width="7" stroke-dasharray="350 350 350 350 350 1400"/>
<path d="M396.033 147.956C264.513 389.058 342.563 697.353 570.362 836.554C798.162 975.754 1089.45 893.146 1220.97 652.044C1352.49 410.942 1274.44 102.647 1046.64 -36.5535C818.839 -175.754 527.553 -93.1461 396.033 147.956Z" stroke="#D2734D" stroke-opacity="0.02" stroke-width="2.5" stroke-dasharray="1600 800 1600 800 1600 1600 800 1600"/>
<path d="M540.595 891.123C796.869 1047.72 1124.57 954.789 1272.53 683.55C1420.49 412.31 1332.68 65.4775 1076.41 -91.1227C820.131 -247.723 492.435 -154.789 344.475 116.45C196.515 387.69 284.321 734.522 540.595 891.123Z" stroke="#D2734D" stroke-opacity="0.02" stroke-width="9" stroke-dasharray="1800 900 1800 900 1800 1800 900 1800"/>
<path d="M696.509 725.661C866.443 791.123 1054.34 698.388 1116.19 518.531C1178.04 338.673 1090.43 139.802 920.491 74.3393C750.557 8.87654 562.659 101.612 500.808 281.469C438.957 461.327 526.576 660.198 696.509 725.661Z" stroke="#F7BC72" stroke-opacity="0.25" stroke-width="2" stroke-dasharray="1100 550 1100 550 1100 1100 550 1100"/>
<path d="M1057.24 713.75C1220.96 568.351 1242.32 310.012 1104.94 136.732C967.563 -36.5473 723.477 -59.1492 559.758 86.2497C396.039 231.648 374.684 489.988 512.061 663.268C649.437 836.547 893.523 859.149 1057.24 713.75Z" stroke="#D2734D" stroke-opacity="0.02" stroke-width="2.5" stroke-dasharray="1300 1300"/>
<path d="M421.813 636.291C545.112 862.324 818.193 939.769 1031.75 809.269C1245.32 678.769 1318.49 389.741 1195.19 163.708C1071.89 -62.3245 798.808 -139.769 585.246 -9.26897C371.684 121.231 298.513 410.258 421.813 636.291Z" stroke="#D2734D" stroke-opacity="0.02" stroke-width="7.5" stroke-dasharray="1500 1500"/>
<path d="M1306.86 493.005C1355.39 201.698 1171.61 -76.092 896.374 -127.457C621.14 -178.822 358.677 15.6885 310.145 306.995C261.614 598.302 445.393 876.092 720.627 927.457C995.861 978.822 1258.32 784.312 1306.86 493.005Z" stroke="#D2734D" stroke-opacity="0.02" stroke-width="8.5" stroke-dasharray="1700 850 850 1700"/>
<path d="M251.515 296.053C197.275 621.631 402.674 932.103 710.289 989.511C1017.9 1046.92 1311.24 829.525 1365.49 503.947C1419.73 178.369 1214.33 -132.103 906.712 -189.511C599.097 -246.919 305.756 -29.5247 251.515 296.053Z" stroke="#D2734D" stroke-opacity="0.02" stroke-width="9.5" stroke-dasharray="1520 1520 1520 1520 1520 1900"/>
<path d="M292.916 715.055C457.316 1016.43 821.423 1119.69 1106.17 945.692C1390.92 771.692 1488.48 386.322 1324.08 84.9447C1159.68 -216.433 795.576 -319.692 510.828 -145.692C226.079 28.3085 128.516 413.678 292.916 715.055Z" stroke="#D2734D" stroke-opacity="0.02" stroke-width="2.5" stroke-dasharray="2000 1000 1000 2000"/>
<path d="M267.137 69.192C94.5171 385.638 196.957 790.276 495.944 972.977C794.93 1155.68 1177.24 1047.25 1349.86 730.808C1522.48 414.362 1420.04 9.7239 1121.06 -172.976C822.069 -355.677 439.757 -247.254 267.137 69.192Z" stroke="#D2734D" stroke-opacity="0.02" stroke-width="10.5" stroke-dasharray="1680 1680 1680 1680 1680 2100"/>
<path d="M808.5 -324.627C430.38 -324.627 123.853 -0.200439 123.853 400C123.853 800.201 430.38 1124.63 808.5 1124.63C1186.62 1124.63 1493.15 800.201 1493.15 400C1493.15 -0.200439 1186.62 -324.627 808.5 -324.627Z" stroke="#D2734D" stroke-opacity="0.02" stroke-width="2.5" stroke-dasharray="1840 1840 1840 1840 1840 2300"/>
<path d="M1427.2 21.9337C1229.92 -339.719 792.991 -463.63 451.293 -254.83C109.594 -46.0298 -7.48079 416.414 189.799 778.067C387.079 1139.72 824.007 1263.63 1165.71 1054.83C1507.4 846.03 1624.48 383.587 1427.2 21.9337Z" stroke="#D2734D" stroke-opacity="0.02" stroke-width="12" stroke-dasharray="2400 1200 1200 2400"/>
<path d="M1452.98 793.819C1658.48 417.098 1536.53 -64.6145 1180.59 -282.115C824.654 -499.615 369.52 -370.541 164.02 6.18091C-41.4798 382.903 80.473 864.615 436.409 1082.11C792.345 1299.62 1247.48 1170.54 1452.98 793.819Z" stroke="#D2734D" stroke-opacity="0.02" stroke-width="12.5" stroke-dasharray="2000 2000 2000 2000 2000 2500"/>
<path d="M1032.48 -251.321C692.614 -382.247 316.817 -196.776 193.115 162.939C69.4133 522.654 244.65 920.396 584.518 1051.32C924.386 1182.25 1300.18 996.777 1423.89 637.062C1547.59 277.347 1372.35 -120.396 1032.48 -251.321Z" stroke="#F7BC72" stroke-opacity="0.02" stroke-width="11" stroke-dasharray="2200 1100 2200 1100 2200 2200 1100 2200"/>
<path d="M311.016 -227.5C-16.4216 63.2975 -59.131 579.977 215.622 926.536C490.375 1273.1 978.547 1318.3 1305.98 1027.5C1633.42 736.704 1676.13 220.024 1401.38 -126.535C1126.63 -473.094 638.454 -518.298 311.016 -227.5Z" stroke="#D2734D" stroke-opacity="0.02" stroke-width="13" stroke-dasharray="2600 2600"/>
<path d="M1581.87 -72.5828C1335.28 -524.649 789.115 -679.538 361.991 -418.538C-65.1322 -157.537 -211.475 420.517 35.1243 872.583C281.724 1324.65 827.885 1479.54 1255.01 1218.54C1682.13 957.538 1828.47 379.483 1581.87 -72.5828Z" stroke="#D2734D" stroke-opacity="0.02" stroke-width="15" stroke-dasharray="3000 3000"/>
<path d="M-188.21 213.991C-285.272 796.604 82.2855 1352.18 632.753 1454.92C1183.22 1557.65 1708.15 1168.62 1805.21 586.011C1902.27 3.39759 1534.71 -552.183 984.247 -654.914C433.779 -757.644 -91.1475 -368.622 -188.21 213.991Z" stroke="#D2734D" stroke-opacity="0.02" stroke-width="17" stroke-dasharray="3400 1700 1700 3400"/>
<path d="M1922.47 607.894C2030.95 -43.2624 1620.15 -664.206 1004.92 -779.022C389.694 -893.838 -196.989 -459.049 -305.471 192.107C-413.952 843.263 -3.1522 1464.21 612.076 1579.02C1227.31 1693.84 1813.99 1259.05 1922.47 607.894Z" stroke="#D2734D" stroke-opacity="0.02" stroke-width="19" stroke-dasharray="3040 3040 3040 3040 3040 3800"/>
<path d="M808.499 1250.65C1252.38 1250.65 1612.21 869.801 1612.21 400C1612.21 -69.8007 1252.38 -450.649 808.499 -450.649C364.62 -450.649 4.78418 -69.8007 4.78418 400C4.78418 869.801 364.62 1250.65 808.499 1250.65Z" stroke="#D2734D" stroke-opacity="0.02" stroke-width="13.5" stroke-dasharray="2160 2160 2160 2160 2160 2700"/>
<path d="M219.138 1023.78C544.633 1368.28 1072.37 1368.28 1397.86 1023.78C1723.36 679.275 1723.36 120.725 1397.86 -223.778C1072.37 -568.281 544.634 -568.281 219.138 -223.778C-106.357 120.725 -106.357 679.275 219.138 1023.78Z" stroke="#D2734D" stroke-opacity="0.02" stroke-width="14" stroke-dasharray="2240 2240 2240 2240 2240 2800"/>
<path d="M-54.7505 400C-54.7505 904.601 331.74 1313.66 808.499 1313.66C1285.26 1313.66 1671.75 904.601 1671.75 400C1671.75 -104.601 1285.26 -513.661 808.499 -513.661C331.74 -513.661 -54.7505 -104.601 -54.7505 400Z" stroke="#D2734D" stroke-opacity="0.02" stroke-width="14.5" stroke-dasharray="2320 2320 2320 2320 2320 2900"/>
<path d="M155.993 -290.611C-204.377 90.803 -204.377 709.197 155.993 1090.61C516.362 1472.03 1100.64 1472.03 1461.01 1090.61C1821.38 709.197 1821.38 90.803 1461.01 -290.611C1100.64 -672.025 516.362 -672.025 155.993 -290.611Z" stroke="#D2734D" stroke-opacity="0.02" stroke-width="15.5" stroke-dasharray="3100 3100 3100 3100 3100 3100"/>
<path d="M808.499 -608.177C282.42 -608.177 -144.052 -156.801 -144.052 400C-144.052 956.801 282.42 1408.18 808.499 1408.18C1334.58 1408.18 1761.05 956.801 1761.05 400C1761.05 -156.801 1334.58 -608.177 808.499 -608.177Z" stroke="#D2734D" stroke-opacity="0.02" stroke-width="16" stroke-dasharray="3200 3200 3200 3200 3200 3200"/>
<path d="M1503.1 -335.167C1119.48 -741.188 497.515 -741.188 113.896 -335.167C-269.724 70.8548 -269.724 729.145 113.896 1135.17C497.515 1541.19 1119.48 1541.19 1503.1 1135.17C1886.72 729.145 1886.72 70.8548 1503.1 -335.167Z" stroke="#D2734D" stroke-opacity="0.02" stroke-width="16.5" stroke-dasharray="3300 3300 3300 3300 3300 3300"/>
<path d="M1850.35 400C1850.35 -209.001 1383.9 -702.694 808.5 -702.694C233.1 -702.694 -233.354 -209.001 -233.354 400C-233.354 1009 233.1 1502.69 808.5 1502.69C1383.9 1502.69 1850.35 1009 1850.35 400Z" stroke="#D2734D" stroke-opacity="0.02" stroke-width="17.5" stroke-dasharray="3500 3500 3500 3500 3500 3500"/>
<path d="M1566.25 1202C1984.74 759.068 1984.74 40.9323 1566.25 -402C1147.76 -844.932 469.244 -844.932 50.7501 -402C-367.744 40.9323 -367.744 759.068 50.7501 1202C469.244 1644.93 1147.76 1644.93 1566.25 1202Z" stroke="#D2734D" stroke-opacity="0.02" stroke-width="18" stroke-dasharray="3600 3600 3600 3600 3600 3600"/>
<path d="M808.5 1565.7C1416.78 1565.7 1909.89 1043.8 1909.89 400C1909.89 -243.801 1416.78 -765.705 808.5 -765.705C200.22 -765.705 -292.888 -243.801 -292.888 400C-292.888 1043.8 200.22 1565.7 808.5 1565.7Z" stroke="#D2734D" stroke-opacity="0.02" stroke-width="18.5" stroke-dasharray="3700 3700 3700 3700 3700 3700"/>
<path d="M-312.864 718.015C-146.92 1373.49 489.657 1762.48 1108.97 1586.85C1728.28 1411.21 2095.81 737.463 1929.86 81.9848C1763.92 -573.493 1127.34 -962.483 508.031 -786.848C-111.281 -611.214 -478.809 62.5367 -312.864 718.015Z" stroke="#D2734D" stroke-opacity="0.02" stroke-width="19.5" stroke-dasharray="3900 3900 3900 3900 3900 3900"/>
</g>
<defs>
<clipPath id="clip0_2007_93">
<rect width="1440" height="800" fill="white"/>
</clipPath>
</defs>
</svg>
