<svg width="19" height="19" viewBox="0 0 19 19" fill="none" xmlns="http://www.w3.org/2000/svg">
<path d="M4.59762 13.79C4.39966 13.5921 4.37447 13.2959 4.54138 13.129L12.3902 5.28022L5.67081 4.76422C5.60856 4.7612 5.54541 4.74565 5.48511 4.71849C5.42481 4.69133 5.36857 4.65311 5.31972 4.60609C5.27088 4.55907 5.23042 4.5042 5.20073 4.44474C5.17104 4.38528 5.15273 4.32242 5.14689 4.25989C5.14104 4.19736 5.14778 4.13642 5.16669 4.08068C5.18561 4.02494 5.21632 3.97554 5.25702 3.93538C5.29771 3.89522 5.34756 3.86513 5.40362 3.84689C5.45968 3.82865 5.5208 3.82262 5.58339 3.82917L13.4375 4.432L13.4515 4.43292C13.5207 4.43923 13.5901 4.46084 13.6549 4.49618C13.7197 4.53152 13.7782 4.57971 13.8261 4.63725C13.9048 4.7311 13.9511 4.84494 13.9563 4.95752L14.5582 12.804C14.5647 12.8665 14.5587 12.9277 14.5405 12.9837C14.5222 13.0398 14.4921 13.0896 14.452 13.1303C14.4118 13.171 14.3624 13.2017 14.3067 13.2207C14.2509 13.2396 14.19 13.2463 14.1275 13.2405C14.0649 13.2346 14.0021 13.2163 13.9426 13.1866C13.8831 13.1569 13.8283 13.1165 13.7813 13.0676C13.7342 13.0188 13.696 12.9625 13.6689 12.9022C13.6417 12.8419 13.6261 12.7788 13.6231 12.7165L13.1071 5.99716L5.25832 13.846C5.09141 14.0129 4.79586 13.9883 4.59762 13.79Z" fill="#181818"/>
</svg>
