<svg width="115" height="33" viewBox="0 0 115 33" fill="none" xmlns="http://www.w3.org/2000/svg">
<g clip-path="url(#clip0_37_1165)">
<path d="M14.0193 5.43224C12.7712 7.01825 11.7092 8.38265 11.661 8.45883C11.6127 8.54194 11.5782 8.72199 11.5713 8.8605C11.5713 9.06832 12.4264 12.9884 12.4884 13.0506C12.5023 13.0715 19.0395 4.85739 19.074 4.77429C19.0947 4.71195 16.4329 2.55109 16.3502 2.55802C16.3157 2.55802 15.2744 3.85314 14.0193 5.43224Z" fill="#181818"/>
<path d="M6.19246 5.80616C4.69606 6.15938 4.50297 6.21478 4.51677 6.33253C4.53056 6.49182 6.02006 13.0783 6.1235 13.4246C6.15797 13.5631 6.2752 13.757 6.37864 13.854C6.57862 14.0479 10.1782 15.814 10.2403 15.7517C10.261 15.7378 10.2058 15.4261 10.1231 15.0729C10.0472 14.7197 9.53008 12.448 8.97834 10.031C8.43361 7.6138 7.96469 5.58453 7.93711 5.5222C7.88884 5.42523 7.67507 5.45987 6.19246 5.80616Z" fill="#181818"/>
<path d="M18.826 9.66379C18.6949 9.74004 18.0881 10.4396 17.2951 11.4299L15.9849 13.0782H21.2947H26.6045V11.3121V9.54612H22.8255C19.3638 9.54612 19.0328 9.55298 18.826 9.66379Z" fill="#181818"/>
<path d="M0.717279 16.2019C0.310424 17.0468 -0.00678554 17.7671 0.000110324 17.8018C0.013902 17.8364 1.37238 18.522 3.0205 19.3185C6.86839 21.1885 6.70978 21.1123 6.99251 21.1123C7.17181 21.1123 7.79244 20.8491 9.13022 20.1981C10.1715 19.6994 10.999 19.2631 10.9714 19.2354C10.8956 19.1592 1.59995 14.6713 1.5241 14.6713C1.48272 14.6713 1.12414 15.3638 0.717279 16.2019Z" fill="#181818"/>
<path d="M18.3708 16.1048C18.4811 16.2502 19.1155 17.0536 19.7775 17.8916C20.4464 18.7297 21.8394 20.482 22.8738 21.7909C23.9082 23.0999 24.7908 24.1526 24.8253 24.1458C24.8598 24.1319 25.4942 23.6402 26.2321 23.0584C27.1079 22.3589 27.5492 21.9641 27.5078 21.9156C27.4802 21.8741 26.5217 20.6689 25.3908 19.2422C24.2529 17.8155 23.2255 16.5135 23.1014 16.3611C22.7152 15.8555 22.6807 15.8486 20.2948 15.8486H18.1777L18.3708 16.1048Z" fill="#181818"/>
<path d="M17.3434 19.4223C17.302 19.547 16.8055 21.7356 15.5367 27.3386C15.2471 28.6061 15.0264 29.6657 15.0402 29.6795C15.0954 29.728 18.4123 30.4691 18.4468 30.4414C18.4606 30.4206 18.8467 28.7653 19.3087 26.7568C19.9225 24.0557 20.1225 23.0515 20.088 22.8714C20.0604 22.6983 19.6811 22.1719 18.7984 21.0569C17.2814 19.1453 17.3917 19.2631 17.3434 19.4223Z" fill="#181818"/>
<path d="M9.4059 23.114C6.82685 24.3606 4.70982 25.4133 4.69603 25.4549C4.67535 25.5173 6.06831 28.4884 6.15796 28.5784C6.19933 28.62 8.01983 27.7543 11.6057 25.9951C12.778 25.4202 13.0745 25.2471 13.1779 25.074C13.24 24.9632 13.4951 23.9728 13.7434 22.8854C14.2399 20.7107 14.2123 20.8353 14.1434 20.8353C14.1089 20.8423 11.9781 21.8604 9.4059 23.114Z" fill="#181818"/>
<path d="M43.7335 26.7598C38.5338 26.7598 35 22.9307 35 17.3799C35 11.829 38.5338 8 43.7335 8C48.9838 8 52.4923 11.829 52.4923 17.3799C52.4923 22.9307 48.9838 26.7598 43.7335 26.7598ZM38.2561 17.3799C38.2561 21.2603 40.1745 23.9073 43.7335 23.9073C47.3178 23.9073 49.2109 21.2603 49.2109 17.3799C49.2109 13.4994 47.3178 10.8525 43.7335 10.8525C40.1745 10.8525 38.2561 13.4994 38.2561 17.3799ZM54.8173 31V13.5251H57.7705L57.7201 16.3777H57.8715C58.1744 15.067 59.6132 13.1397 62.2383 13.1397C65.4944 13.1397 67.8671 15.8637 67.8671 19.8726C67.8671 23.8816 65.6206 26.7598 62.3392 26.7598C59.5627 26.7598 58.2754 24.781 57.8967 23.5732H57.7705V31H54.8173ZM57.6948 19.924C57.6948 22.7765 59.2093 24.2156 61.2286 24.2156C63.2227 24.2156 64.8129 22.7765 64.8129 19.924C64.8129 17.0715 63.2479 15.6581 61.2286 15.6581C59.2093 15.6581 57.6948 17.0972 57.6948 19.924ZM74.6478 26.3743C72.3256 26.3743 70.9626 25.1922 70.9626 22.8022V15.8123H68.287V13.5251H70.9626V9.92737H73.9158V13.5251H77.5001V15.8123H73.9158V22.2883C73.9158 23.2905 74.4459 23.8559 75.4051 23.8559H77.5001V26.3743H74.6478ZM85.0023 26.7598C81.519 26.7598 78.6417 24.4212 78.6417 19.9497C78.6417 15.7609 81.2918 13.1397 85.1032 13.1397C88.7632 13.1397 91.3884 15.3754 91.3884 19.5899C91.3884 20.0525 91.3631 20.3866 91.3126 20.6436H81.4937C81.5947 23.1363 83.1344 24.4212 85.1537 24.4212C86.6935 24.4212 87.905 23.7017 88.3089 22.1855H91.2117C90.7321 25.2179 88.2332 26.7598 85.0023 26.7598ZM81.5694 18.819H88.3846C88.3846 16.7631 87.0721 15.3497 85.0275 15.3497C83.0334 15.3497 81.6956 16.7888 81.5694 18.819ZM99.4877 26.7598C95.6258 26.7598 93.0007 24.0872 93.0007 19.9497C93.0007 15.8123 95.6258 13.1397 99.4877 13.1397C103.35 13.1397 106 15.8123 106 19.9497C106 24.0872 103.35 26.7598 99.4877 26.7598ZM96.0296 19.9497C96.0296 22.8536 97.5694 24.2156 99.4877 24.2156C101.406 24.2156 102.971 22.8536 102.971 19.9497C102.971 17.0715 101.406 15.6581 99.4877 15.6581C97.5694 15.6581 96.0296 17.0715 96.0296 19.9497Z" fill="#181818"/>
</g>
<defs>
<clipPath id="clip0_37_1165">
<rect width="115" height="33" fill="white"/>
</clipPath>
</defs>
</svg>
