<svg width="19" height="20" viewBox="0 0 19 20" fill="none" xmlns="http://www.w3.org/2000/svg">
<path d="M4.59762 14.5964C4.39966 14.3985 4.37447 14.1023 4.54138 13.9354L12.3902 6.08662L5.67081 5.57062C5.60856 5.5676 5.54541 5.55205 5.48511 5.52488C5.42481 5.49772 5.36857 5.4595 5.31972 5.41248C5.27088 5.36546 5.23042 5.3106 5.20073 5.25114C5.17104 5.19167 5.15273 5.12882 5.14689 5.06629C5.14104 5.00375 5.14778 4.94282 5.16669 4.88708C5.18561 4.83134 5.21632 4.78193 5.25702 4.74177C5.29771 4.70162 5.34756 4.67153 5.40362 4.65328C5.45968 4.63504 5.5208 4.62902 5.58339 4.63556L13.4375 5.23839L13.4515 5.23932C13.5207 5.24563 13.5901 5.26723 13.6549 5.30257C13.7197 5.33792 13.7782 5.3861 13.8261 5.44364C13.9048 5.53749 13.9511 5.65133 13.9563 5.76392L14.5582 13.6104C14.5647 13.6729 14.5587 13.7341 14.5405 13.7901C14.5222 13.8462 14.4921 13.896 14.452 13.9367C14.4118 13.9774 14.3624 14.0081 14.3067 14.027C14.2509 14.046 14.19 14.0527 14.1275 14.0469C14.0649 14.041 14.0021 14.0227 13.9426 13.993C13.8831 13.9633 13.8283 13.9229 13.7813 13.874C13.7342 13.8252 13.696 13.7689 13.6689 13.7086C13.6417 13.6483 13.6261 13.5852 13.6231 13.5229L13.1071 6.80356L5.25832 14.6524C5.09141 14.8193 4.79586 14.7946 4.59762 14.5964Z" fill="white"/>
</svg>
