<?xml version="1.0" encoding="UTF-8"?>
<svg xmlns="http://www.w3.org/2000/svg" xmlns:xlink="http://www.w3.org/1999/xlink" width="32px" height="32px" viewBox="0 0 32 32" version="1.1">
<defs>
<clipPath id="clip1">
  <path d="M 5 10 L 32 10 L 32 32 L 5 32 Z M 5 10 "/>
</clipPath>
<clipPath id="clip2">
  <path d="M 32 16 C 32 24.835938 24.835938 32 16 32 C 7.164062 32 0 24.835938 0 16 C 0 7.164062 7.164062 0 16 0 C 24.835938 0 32 7.164062 32 16 Z M 32 16 "/>
</clipPath>
<clipPath id="clip3">
  <path d="M 5 16 L 32 16 L 32 32 L 5 32 Z M 5 16 "/>
</clipPath>
<clipPath id="clip4">
  <path d="M 32 16 C 32 24.835938 24.835938 32 16 32 C 7.164062 32 0 24.835938 0 16 C 0 7.164062 7.164062 0 16 0 C 24.835938 0 32 7.164062 32 16 Z M 32 16 "/>
</clipPath>
</defs>
<g id="surface1">
<path style=" stroke:none;fill-rule:nonzero;fill:rgb(0%,49.019608%,72.54902%);fill-opacity:1;" d="M 32 16 C 32 24.835938 24.835938 32 16 32 C 7.164062 32 0 24.835938 0 16 C 0 7.164062 7.164062 0 16 0 C 24.835938 0 32 7.164062 32 16 Z M 32 16 "/>
<g clip-path="url(#clip1)" clip-rule="nonzero">
<g clip-path="url(#clip2)" clip-rule="nonzero">
<path style=" stroke:none;fill-rule:nonzero;fill:rgb(0%,44.313725%,69.411765%);fill-opacity:1;" d="M 23.722656 10.925781 L 32 19.140625 L 32 32 L 14.433594 32 L 5.546875 23.125 Z M 23.722656 10.925781 "/>
</g>
</g>
<g clip-path="url(#clip3)" clip-rule="nonzero">
<g clip-path="url(#clip4)" clip-rule="nonzero">
<path style=" stroke:none;fill-rule:nonzero;fill:rgb(0%,42.745098%,67.843137%);fill-opacity:1;" d="M 26.578125 16.75 L 32 22.140625 L 32 32 L 14.433594 32 L 5.546875 23.125 Z M 26.578125 16.75 "/>
</g>
</g>
<path style=" stroke:none;fill-rule:nonzero;fill:rgb(100%,80%,2.745098%);fill-opacity:1;" d="M 18.132812 11.679688 C 18.132812 15.15625 15.316406 17.972656 11.839844 17.972656 C 8.363281 17.972656 5.546875 15.15625 5.546875 11.679688 C 5.546875 8.207031 8.363281 5.390625 11.839844 5.390625 C 15.316406 5.390625 18.132812 8.207031 18.132812 11.679688 Z M 18.132812 11.679688 "/>
<path style=" stroke:none;fill-rule:nonzero;fill:rgb(95.686275%,92.54902%,30.588235%);fill-opacity:1;" d="M 16.136719 11.679688 C 16.136719 14.054688 14.210938 15.976562 11.839844 15.976562 C 9.46875 15.976562 7.542969 14.054688 7.542969 11.679688 C 7.542969 9.308594 9.46875 7.386719 11.839844 7.386719 C 14.210938 7.386719 16.136719 9.308594 16.136719 11.679688 Z M 16.136719 11.679688 "/>
<path style=" stroke:none;fill-rule:nonzero;fill:rgb(96.078431%,92.54902%,87.45098%);fill-opacity:1;" d="M 14.011719 11.679688 C 14.011719 12.878906 13.039062 13.851562 11.839844 13.851562 C 10.640625 13.851562 9.667969 12.878906 9.667969 11.679688 C 9.667969 10.480469 10.640625 9.511719 11.839844 9.511719 C 13.039062 9.511719 14.011719 10.480469 14.011719 11.679688 Z M 14.011719 11.679688 "/>
<path style=" stroke:none;fill-rule:nonzero;fill:rgb(41.568627%,77.254902%,94.117647%);fill-opacity:1;" d="M 24.410156 15.550781 C 24.578125 15.027344 24.671875 14.46875 24.671875 13.890625 C 24.671875 10.921875 22.265625 8.515625 19.296875 8.515625 C 17.035156 8.515625 15.105469 9.910156 14.3125 11.890625 C 13.609375 11.441406 12.777344 11.179688 11.882812 11.179688 C 9.378906 11.179688 7.351562 13.203125 7.339844 15.703125 C 5.59375 16.335938 4.296875 18.003906 4.296875 19.972656 C 4.296875 22.464844 6.25 24.484375 8.75 24.511719 L 8.75 24.5 L 23.382812 24.5 C 25.890625 24.5 27.921875 22.472656 27.921875 19.964844 C 27.921875 17.808594 26.421875 16.015625 24.410156 15.550781 Z M 24.410156 15.550781 "/>
<path style=" stroke:none;fill-rule:nonzero;fill:rgb(65.882353%,85.882353%,93.333333%);fill-opacity:1;" d="M 14.3125 11.890625 C 13.609375 11.441406 12.777344 11.179688 11.882812 11.179688 C 9.378906 11.179688 7.351562 13.203125 7.339844 15.703125 C 5.59375 16.335938 4.296875 18.003906 4.296875 19.972656 C 4.296875 20.964844 4.609375 21.875 5.140625 22.621094 C 4.90625 22.0625 4.773438 21.445312 4.773438 20.792969 C 4.773438 18.792969 6.148438 17.09375 7.929688 16.453125 C 7.9375 13.910156 10.003906 11.851562 12.554688 11.851562 C 13.464844 11.851562 14.3125 12.117188 15.03125 12.574219 C 15.839844 10.5625 17.804688 9.140625 20.109375 9.140625 C 21.125 9.140625 22.070312 9.414062 22.886719 9.894531 C 21.933594 9.039062 20.679688 8.515625 19.296875 8.515625 C 17.035156 8.515625 15.105469 9.910156 14.3125 11.890625 Z M 14.3125 11.890625 "/>
<path style=" stroke:none;fill-rule:nonzero;fill:rgb(65.882353%,85.882353%,93.333333%);fill-opacity:1;" d="M 18.378906 16.953125 C 17.886719 16.640625 17.300781 16.457031 16.671875 16.457031 C 14.910156 16.457031 13.484375 17.878906 13.480469 19.636719 C 12.25 20.082031 11.339844 21.253906 11.339844 22.636719 C 11.339844 23.332031 11.558594 23.976562 11.929688 24.5 C 11.765625 24.105469 11.671875 23.671875 11.671875 23.214844 C 11.671875 21.808594 12.640625 20.613281 13.890625 20.164062 C 13.898438 18.375 15.351562 16.925781 17.144531 16.925781 C 17.785156 16.925781 18.378906 17.117188 18.882812 17.433594 C 19.453125 16.019531 20.835938 15.019531 22.457031 15.019531 C 23.167969 15.019531 23.835938 15.214844 24.40625 15.550781 C 23.738281 14.949219 22.855469 14.582031 21.886719 14.582031 C 20.296875 14.582031 18.9375 15.566406 18.378906 16.953125 Z M 18.378906 16.953125 "/>
</g>
</svg>
