<?xml version="1.0" encoding="UTF-8"?>
<svg xmlns="http://www.w3.org/2000/svg" xmlns:xlink="http://www.w3.org/1999/xlink" width="256px" height="256px" viewBox="0 0 256 256" version="1.1">
<defs>
<clipPath id="clip1">
  <path d="M 44 87 L 256 87 L 256 256 L 44 256 Z M 44 87 "/>
</clipPath>
<clipPath id="clip2">
  <path d="M 256 128 C 256 198.691406 198.691406 256 128 256 C 57.308594 256 0 198.691406 0 128 C 0 57.308594 57.308594 0 128 0 C 198.691406 0 256 57.308594 256 128 Z M 256 128 "/>
</clipPath>
<clipPath id="clip3">
  <path d="M 44 134 L 256 134 L 256 256 L 44 256 Z M 44 134 "/>
</clipPath>
<clipPath id="clip4">
  <path d="M 256 128 C 256 198.691406 198.691406 256 128 256 C 57.308594 256 0 198.691406 0 128 C 0 57.308594 57.308594 0 128 0 C 198.691406 0 256 57.308594 256 128 Z M 256 128 "/>
</clipPath>
</defs>
<g id="surface1">
<path style=" stroke:none;fill-rule:nonzero;fill:rgb(0%,49.019608%,72.54902%);fill-opacity:1;" d="M 256 128 C 256 198.691406 198.691406 256 128 256 C 57.308594 256 0 198.691406 0 128 C 0 57.308594 57.308594 0 128 0 C 198.691406 0 256 57.308594 256 128 Z M 256 128 "/>
<g clip-path="url(#clip1)" clip-rule="nonzero">
<g clip-path="url(#clip2)" clip-rule="nonzero">
<path style=" stroke:none;fill-rule:nonzero;fill:rgb(0%,44.313725%,69.411765%);fill-opacity:1;" d="M 189.796875 87.40625 L 256 153.125 L 256 256 L 115.46875 256 L 44.386719 185.007812 Z M 189.796875 87.40625 "/>
</g>
</g>
<g clip-path="url(#clip3)" clip-rule="nonzero">
<g clip-path="url(#clip4)" clip-rule="nonzero">
<path style=" stroke:none;fill-rule:nonzero;fill:rgb(0%,42.745098%,67.843137%);fill-opacity:1;" d="M 212.636719 134 L 256 177.109375 L 256 256 L 115.46875 256 L 44.386719 185.007812 Z M 212.636719 134 "/>
</g>
</g>
<path style=" stroke:none;fill-rule:nonzero;fill:rgb(100%,80%,2.745098%);fill-opacity:1;" d="M 145.054688 93.445312 C 145.054688 121.242188 122.519531 143.777344 94.71875 143.777344 C 66.921875 143.777344 44.386719 121.242188 44.386719 93.445312 C 44.386719 65.644531 66.921875 43.109375 94.71875 43.109375 C 122.519531 43.109375 145.054688 65.644531 145.054688 93.445312 Z M 145.054688 93.445312 "/>
<path style=" stroke:none;fill-rule:nonzero;fill:rgb(95.686275%,92.54902%,30.588235%);fill-opacity:1;" d="M 129.085938 93.445312 C 129.085938 112.421875 113.699219 127.808594 94.71875 127.808594 C 75.742188 127.808594 60.355469 112.421875 60.355469 93.445312 C 60.355469 74.464844 75.742188 59.078125 94.71875 59.078125 C 113.699219 59.078125 129.085938 74.464844 129.085938 93.445312 Z M 129.085938 93.445312 "/>
<path style=" stroke:none;fill-rule:nonzero;fill:rgb(96.078431%,92.54902%,87.45098%);fill-opacity:1;" d="M 112.085938 93.445312 C 112.085938 103.035156 104.308594 110.808594 94.71875 110.808594 C 85.128906 110.808594 77.355469 103.035156 77.355469 93.445312 C 77.355469 83.855469 85.128906 76.078125 94.71875 76.078125 C 104.308594 76.078125 112.085938 83.855469 112.085938 93.445312 Z M 112.085938 93.445312 "/>
<path style=" stroke:none;fill-rule:nonzero;fill:rgb(41.568627%,77.254902%,94.117647%);fill-opacity:1;" d="M 195.265625 124.410156 C 196.628906 120.21875 197.386719 115.757812 197.386719 111.109375 C 197.386719 87.363281 178.136719 68.109375 154.386719 68.109375 C 136.296875 68.109375 120.84375 79.296875 114.492188 95.117188 C 108.867188 91.542969 102.214844 89.445312 95.054688 89.445312 C 75.035156 89.445312 58.804688 105.632812 58.726562 125.632812 C 44.738281 130.6875 34.390625 144.042969 34.390625 159.777344 C 34.390625 179.710938 50 195.875 70 196.089844 L 70 196 L 187.054688 196 C 207.121094 196 223.386719 179.789062 223.386719 159.722656 C 223.386719 142.484375 211.371094 128.136719 195.265625 124.410156 Z M 195.265625 124.410156 "/>
<path style=" stroke:none;fill-rule:nonzero;fill:rgb(65.882353%,85.882353%,93.333333%);fill-opacity:1;" d="M 114.492188 95.117188 C 108.867188 91.542969 102.214844 89.445312 95.054688 89.445312 C 75.035156 89.445312 58.804688 105.632812 58.726562 125.632812 C 44.738281 130.6875 34.390625 144.042969 34.390625 159.777344 C 34.390625 167.703125 36.890625 175.011719 41.121094 180.980469 C 39.238281 176.492188 38.183594 171.554688 38.183594 166.355469 C 38.183594 150.351562 49.183594 136.765625 63.433594 131.625 C 63.511719 111.28125 80.042969 94.808594 100.4375 94.808594 C 107.726562 94.808594 114.507812 96.945312 120.238281 100.582031 C 126.707031 84.488281 142.445312 73.109375 160.875 73.109375 C 168.988281 73.109375 176.578125 75.320312 183.09375 79.15625 C 175.476562 72.3125 165.4375 68.109375 154.390625 68.109375 C 136.296875 68.109375 120.84375 79.296875 114.492188 95.117188 Z M 114.492188 95.117188 "/>
<path style=" stroke:none;fill-rule:nonzero;fill:rgb(65.882353%,85.882353%,93.333333%);fill-opacity:1;" d="M 147.039062 135.636719 C 143.082031 133.125 138.402344 131.648438 133.371094 131.648438 C 119.296875 131.648438 107.886719 143.03125 107.828125 157.09375 C 97.992188 160.644531 90.71875 170.035156 90.71875 181.097656 C 90.71875 186.671875 92.476562 191.808594 95.449219 196.003906 C 94.125 192.851562 93.382812 189.375 93.382812 185.71875 C 93.382812 174.46875 101.117188 164.914062 111.136719 161.300781 C 111.191406 146.996094 122.816406 135.421875 137.152344 135.421875 C 142.28125 135.421875 147.046875 136.921875 151.074219 139.476562 C 155.621094 128.164062 166.6875 120.164062 179.644531 120.164062 C 185.347656 120.164062 190.683594 121.71875 195.265625 124.414062 C 189.910156 119.601562 182.851562 116.648438 175.085938 116.648438 C 162.367188 116.652344 151.503906 124.515625 147.039062 135.636719 Z M 147.039062 135.636719 "/>
</g>
</svg>
